<svg width="25" height="25" viewBox="0 0 25 25" fill="none" xmlns="http://www.w3.org/2000/svg">
<path d="M21.1551 1.15881H4.08841C2.9102 1.15881 1.95508 2.11394 1.95508 3.29215V20.3588C1.95508 21.537 2.9102 22.4921 4.08841 22.4921H21.1551C22.3333 22.4921 23.2884 21.537 23.2884 20.3588V3.29215C23.2884 2.11394 22.3333 1.15881 21.1551 1.15881Z" fill="#FF5A00"/>
<path d="M14.9271 7.02551H15.5968C16.538 7.07885 17.5375 7.25367 18.2871 7.86997C18.8857 8.35493 19.1395 9.18357 18.9923 9.93026C18.8797 10.4873 18.6229 11.0009 18.3464 11.4918C17.7854 12.4636 17.096 13.3506 16.4402 14.2582C16.3227 14.4084 16.2308 14.5921 16.2427 14.7876C16.2536 14.9427 16.3721 15.0681 16.5113 15.1234C16.781 15.2331 17.0792 15.2114 17.3627 15.1955C18.2585 15.1017 19.1217 14.8301 19.976 14.5575C20.0412 14.517 20.0629 14.5832 20.0876 14.6306C19.18 15.236 18.2032 15.7407 17.176 16.1121C16.6081 16.3027 16.0076 16.4835 15.4022 16.4123C15.0842 16.3807 14.7652 16.1911 14.6654 15.8741C14.542 15.4612 14.5874 15.0039 14.7661 14.6138C15.0378 14.0044 15.4595 13.4809 15.8595 12.9525C16.5222 12.0834 17.2066 11.2192 17.7271 10.2532C17.899 9.9105 18.0827 9.49469 17.9118 9.11642C17.7508 8.76778 17.4012 8.56234 17.0664 8.40727C16.4718 8.14159 15.8378 7.98159 15.2126 7.80381C15.1184 7.8657 15.0246 7.92823 14.9311 7.99146C15.1484 8.15738 15.3657 8.32333 15.581 8.49221C14.7582 8.64037 13.9385 8.80629 13.1286 9.01271C11.895 9.3189 10.6911 9.72877 9.498 10.1634C9.61454 10.3955 9.73011 10.6286 9.84072 10.8636C9.5711 11.1619 9.30344 11.4631 9.03379 11.7614C9.68171 11.955 10.38 11.9816 11.0407 11.8355C11.6057 11.7091 12.137 11.4384 12.5686 11.0523C12.4511 10.9061 12.3029 10.7886 12.1429 10.6918C12.6674 10.7026 13.1444 11.1599 13.1454 11.6903C13.0427 11.691 12.9406 11.6916 12.8392 11.6923C12.8175 11.5767 12.7869 11.4651 12.7464 11.3555C12.1508 11.8938 11.3815 12.2306 10.5844 12.3175C9.88219 12.3984 9.16416 12.3016 8.50344 12.0547C8.54787 12.4636 8.59232 12.8706 8.63379 13.2795C8.25848 13.4256 7.90984 13.637 7.59776 13.8918C7.34984 14.1081 7.10392 14.357 7.00912 14.681C6.91824 14.9664 7.0664 15.2904 7.31627 15.4434C7.61947 15.6311 7.97307 15.718 8.3227 15.7684C8.78392 15.8286 9.25011 15.8237 9.71331 15.7911C10.6229 15.7239 11.5217 15.5531 12.4066 15.3387C12.4945 15.3032 12.536 15.4484 12.4461 15.4711C11.74 15.8346 11.0012 16.1407 10.2308 16.3383C9.50688 16.525 8.7612 16.6207 8.01454 16.6464C7.25307 16.6227 6.44416 16.4756 5.84072 15.9768C5.39232 15.6133 5.15627 15.0365 5.1543 14.4647V14.434C5.16912 13.8296 5.37355 13.2449 5.66787 12.7214C6.05504 11.9826 6.53208 11.2893 7.09603 10.674C8.07083 9.60037 9.29355 8.76975 10.6081 8.16826C11.9701 7.55095 13.4279 7.10749 14.9271 7.02551Z" fill="white"/>
</svg>
